<svg xmlns="http://www.w3.org/2000/svg" viewBox="0 0 64 64" role="img" aria-label="Rootster favicon">
  <defs>
    <linearGradient id="bg" x1="0%" y1="0%" x2="100%" y2="100%">
      <stop offset="0%" stop-color="#3a151a" />
      <stop offset="55%" stop-color="#1b1013" />
      <stop offset="100%" stop-color="#12090b" />
    </linearGradient>
    <linearGradient id="flare" x1="16%" y1="12%" x2="84%" y2="88%">
      <stop offset="0%" stop-color="#ee0000" stop-opacity="0.8" />
      <stop offset="100%" stop-color="#65d8ff" stop-opacity="0.08" />
    </linearGradient>
  </defs>
  <rect width="64" height="64" rx="18" fill="#0f0708" />
  <rect x="2" y="2" width="60" height="60" rx="16" fill="url(#bg)" stroke="#ffffff1f" />
  <path d="M12 16h22c8 0 13 4.5 13 11.5 0 5.9-3.4 9.4-8.8 10.5l10.2 10.8H37.7L28.7 39H22v10H12V16zm10 8v7h10c3.2 0 5-1.3 5-3.6 0-2.2-1.8-3.4-5-3.4H22z" fill="#f5efed" />
  <circle cx="49" cy="17" r="4" fill="#ee0000" />
  <path d="M11 50c9-2.4 17.2-2.7 24.6-0.8" stroke="url(#flare)" stroke-width="3" stroke-linecap="round" />
</svg>
